<svg width="948" height="500" viewBox="0 0 948 500" version="1.1" xmlns="http://www.w3.org/2000/svg" xmlns:xlink="http://www.w3.org/1999/xlink">
<title>Shape</title>
<desc>Created using Figma</desc>
<g id="Canvas" transform="translate(-1877 180)">
<g id="Shape">
<use xlink:href="#path0_fill" transform="translate(1877 -239)" fill="#000000" fill-opacity="0.05"/>
</g>
</g>
<defs>
<path id="path0_fill" fill-rule="evenodd" d="M 913.277 365.311L 915.17 365.311L 947.348 371.936L 945.455 373.828L 942.616 375.721L 937.884 377.614L 933.152 380.453L 929.366 381.4L 927.473 382.346L 926.527 384.239L 925.58 388.971L 923.688 389.917L 921.795 388.971L 920.848 388.971L 920.848 389.917L 920.848 390.864L 920.848 391.81L 919.902 392.757L 918.956 393.703L 917.063 393.703L 913.277 390.864L 911.384 390.864L 909.492 389.917L 907.599 388.025L 905.706 386.132L 903.813 387.078L 903.813 388.025L 904.76 389.917L 904.76 390.864L 904.76 391.81L 904.76 392.757L 905.706 393.703L 908.545 395.596L 909.492 397.489L 909.492 399.381L 908.545 401.274L 907.599 403.167L 906.652 403.167L 904.76 402.221L 901.92 400.328L 900.974 400.328L 898.135 400.328L 897.188 400.328L 897.188 399.381L 898.135 399.381L 899.081 399.381L 900.028 399.381L 900.028 398.435L 899.081 398.435L 898.135 398.435L 895.295 398.435L 894.349 398.435L 890.563 400.328L 889.617 401.274L 889.617 402.221L 888.671 404.113L 886.778 406.006L 882.046 408.845L 882.046 409.792L 882.046 410.738L 882.992 411.685L 884.885 412.631L 885.832 413.577L 885.832 414.524L 885.832 415.47L 884.885 415.47L 883.939 415.47L 882.992 415.47L 882.046 415.47L 880.153 415.47L 878.26 414.524L 876.368 414.524L 874.475 416.417L 873.528 418.309L 872.582 419.256L 871.635 420.202L 868.796 422.095L 867.85 422.095L 866.904 421.149L 866.904 420.202L 866.904 417.363L 866.904 415.47L 865.957 413.577L 865.011 412.631L 864.064 413.577L 864.064 414.524L 864.064 415.47L 863.118 416.417L 862.171 416.417L 859.332 415.47L 858.386 414.524L 857.439 413.577L 856.493 412.631L 856.493 411.685L 855.547 410.738L 852.708 409.792L 850.815 407.899L 849.868 407.899L 847.976 407.899L 847.029 407.899L 846.083 407.899L 845.136 406.953L 844.19 406.006L 843.243 406.006L 842.297 406.006L 841.351 406.953L 840.404 408.845L 839.458 409.792L 837.565 409.792L 830.94 408.845L 828.101 409.792L 826.208 411.685L 825.262 411.685L 820.53 411.685L 812.959 414.524L 811.066 414.524L 809.173 414.524L 807.28 412.631L 806.334 409.792L 805.387 406.006L 803.495 403.167L 802.548 402.221L 801.602 402.221L 800.656 402.221L 799.709 402.221L 798.763 402.221L 795.923 401.274L 796.87 398.435L 795.923 397.489L 794.977 396.542L 794.977 394.649L 795.923 393.703L 797.816 392.757L 801.602 391.81L 802.548 391.81L 803.495 390.864L 804.441 388.971L 805.387 388.025L 806.334 388.025L 807.28 388.025L 808.227 388.025L 809.173 387.078L 811.066 384.239L 814.852 381.4L 815.798 380.453L 816.744 379.507L 817.691 379.507L 818.637 378.56L 818.637 377.614L 819.583 374.775L 817.691 373.828L 812.959 372.882L 812.012 371.936L 812.012 370.989L 812.959 370.043L 813.905 370.043L 815.798 371.936L 816.744 371.936L 816.744 370.989L 816.744 370.043L 806.334 358.686L 804.441 356.793L 802.548 354.9L 799.709 353.954L 797.816 354.9L 795.923 362.472L 793.084 366.257L 789.299 369.096L 783.62 370.989L 777.942 374.775L 767.531 377.614L 766.585 378.56L 765.639 379.507L 763.746 382.346L 762.799 383.293L 760.906 383.293L 759.014 382.346L 758.067 381.4L 757.121 380.453L 756.175 378.56L 755.228 377.614L 754.282 376.668L 753.335 375.721L 751.443 371.936L 750.496 370.989L 748.604 370.989L 747.657 370.043L 746.71 369.096L 745.764 368.15L 744.818 368.15L 742.925 369.096L 741.979 370.043L 741.032 370.989L 740.086 372.882L 739.139 374.775L 739.139 376.668L 739.139 379.507L 739.139 383.293L 739.139 384.239L 738.193 385.185L 734.407 385.185L 732.515 386.132L 732.515 388.025L 734.407 391.81L 735.354 395.596L 736.3 396.542L 738.193 399.381L 739.139 400.328L 739.139 402.221L 739.139 406.006L 737.247 406.006L 735.354 405.06L 733.461 405.06L 733.461 406.953L 737.247 410.738L 737.247 412.631L 735.354 413.577L 732.515 413.577L 727.782 411.685L 723.997 409.792L 723.051 409.792L 714.533 410.738L 713.586 410.738L 711.694 411.685L 710.747 411.685L 707.908 410.738L 706.962 410.738L 701.283 411.685L 700.337 412.631L 702.23 414.524L 705.069 416.417L 706.962 417.363L 720.211 414.524L 723.051 416.417L 723.051 417.363L 723.051 418.309L 723.051 419.256L 723.051 420.202L 722.104 420.202L 718.319 419.256L 717.372 419.256L 715.479 421.149L 714.533 421.149L 713.586 419.256L 712.64 418.309L 711.694 419.256L 711.694 420.202L 712.64 421.149L 712.64 422.095L 712.64 423.988L 712.64 424.934L 712.64 425.881L 717.372 432.505L 717.372 434.398L 715.479 435.345L 714.533 433.452L 713.586 430.613L 712.64 427.773L 711.694 426.827L 711.694 427.773L 711.694 428.72L 712.64 430.613L 713.586 433.452L 713.586 434.398L 712.64 435.345L 711.694 435.345L 711.694 436.291L 711.694 437.237L 710.747 437.237L 708.854 434.398L 707.908 433.452L 706.015 435.345L 705.069 435.345L 704.123 435.345L 703.176 437.237L 702.23 448.594L 702.23 450.487L 701.283 451.433L 700.337 452.38L 698.444 454.273L 697.498 455.219L 698.444 456.165L 697.498 457.112L 693.712 458.058L 690.873 458.058L 688.034 458.058L 683.302 456.165L 674.784 456.165L 655.856 451.433L 653.017 451.433L 651.124 452.38L 646.392 456.165L 641.66 457.112L 640.714 458.058L 640.714 460.897L 638.821 460.897L 637.875 460.897L 636.928 461.844L 635.982 464.683L 635.982 467.522L 635.982 470.361L 635.035 473.201L 635.035 475.093L 634.089 475.093L 633.142 475.093L 632.196 475.093L 632.196 476.04L 632.196 476.986L 632.196 479.825L 634.089 481.718L 640.714 484.557L 645.446 484.557L 647.338 485.504L 647.338 486.45L 648.285 486.45L 649.231 487.397L 649.231 488.343L 648.285 494.021L 648.285 495.914L 649.231 496.861L 655.856 497.807L 657.749 497.807L 661.534 496.861L 662.481 496.861L 663.427 496.861L 664.374 496.861L 665.32 496.861L 666.267 497.807L 667.213 497.807L 668.159 497.807L 669.106 496.861L 670.052 497.807L 671.945 501.593L 673.838 503.485L 674.784 504.432L 674.784 506.325L 673.838 507.271L 672.891 508.217L 671.945 509.164L 670.999 510.11L 670.052 510.11L 669.106 510.11L 668.159 510.11L 668.159 512.003L 668.159 512.949L 668.159 513.896L 668.159 514.842L 668.159 515.789L 667.213 516.735L 667.213 517.681L 667.213 518.628L 668.159 521.467L 668.159 522.413L 668.159 526.199L 668.159 528.092L 668.159 529.038L 669.106 530.931L 669.106 531.878L 669.106 533.77L 669.106 534.717L 670.052 535.663L 671.945 537.556L 673.838 541.341L 674.784 542.288L 677.623 544.181L 682.355 547.966L 683.302 549.859L 683.302 552.698L 682.355 556.484L 681.409 560.27L 679.516 563.109L 678.57 564.055L 678.57 565.002L 678.57 565.948L 678.57 566.894L 677.623 567.841L 676.677 567.841L 673.838 567.841L 671.945 568.787L 670.999 569.734L 669.106 576.358L 667.213 579.198L 663.427 584.876L 660.588 587.715L 657.749 591.501L 655.856 595.286L 653.963 599.072L 653.963 601.911L 654.91 607.59L 654.91 610.429L 654.91 613.268L 653.963 615.161L 653.017 617.054L 652.07 616.107L 651.124 615.161L 650.178 615.161L 648.285 615.161L 647.338 615.161L 646.392 615.161L 645.446 614.214L 644.499 614.214L 643.553 614.214L 642.606 614.214L 641.66 614.214L 641.66 615.161L 641.66 616.107L 640.714 616.107L 639.767 615.161L 638.821 612.322L 637.875 611.375L 636.928 611.375L 635.982 612.322L 634.089 614.214L 633.142 615.161L 632.196 616.107L 631.25 616.107L 630.303 616.107L 629.357 616.107L 627.464 617.054L 626.518 617.054L 625.571 616.107L 624.625 615.161L 624.625 614.214L 623.678 613.268L 622.732 612.322L 619.893 611.375L 618.946 610.429L 618 609.482L 617.054 606.643L 616.107 605.697L 615.161 605.697L 613.268 603.804L 612.322 603.804L 609.482 603.804L 604.75 604.75L 597.179 604.75L 596.233 604.75L 595.286 605.697L 594.34 605.697L 592.447 605.697L 591.501 605.697L 587.715 603.804L 586.769 603.804L 585.822 603.804L 584.876 603.804L 583.93 602.858L 583.93 601.911L 584.876 600.965L 585.822 600.018L 586.769 598.126L 586.769 597.179L 585.822 596.233L 584.876 595.286L 583.93 593.394L 583.93 590.554L 584.876 585.822L 584.876 582.983L 584.876 577.305L 584.876 574.466L 586.769 570.68L 589.608 566.894L 591.501 563.109L 590.554 559.323L 588.662 558.377L 586.769 557.43L 584.876 556.484L 581.09 556.484L 579.198 555.538L 573.519 552.698L 570.68 549.859L 568.787 547.966L 566.894 547.02L 563.109 546.073L 559.323 543.234L 557.43 542.288L 553.645 541.341L 547.966 538.502L 546.073 538.502L 544.181 539.449L 541.342 541.341L 540.395 542.288L 536.609 542.288L 532.824 541.341L 523.36 535.663L 517.681 531.878L 510.11 527.146L 504.432 522.413L 496.861 515.789L 493.075 513.896L 484.557 511.057L 477.933 507.271L 466.576 497.807L 461.844 491.182L 460.897 490.236L 459.005 490.236L 454.272 492.129L 453.326 492.129L 451.433 492.129L 449.541 491.182L 441.023 484.557L 433.452 478.879L 427.773 474.147L 423.988 470.361L 418.309 461.844L 414.524 458.058L 406.953 452.38L 388.971 439.13L 380.453 432.505L 372.882 426.827L 366.257 422.095L 363.418 419.256L 362.472 419.256L 358.686 414.524L 357.74 412.631L 356.793 408.845L 356.793 406.953L 356.793 405.06L 356.793 404.113L 356.793 403.167L 356.793 401.274L 354.9 397.489L 354.9 395.596L 354.9 393.703L 354.9 391.81L 354.9 390.864L 353.954 388.025L 353.954 387.078L 353.954 384.239L 353.008 383.293L 348.276 380.453L 345.437 379.507L 344.49 378.56L 344.49 377.614L 344.49 375.721L 344.49 374.775L 342.597 371.936L 341.651 370.043L 340.704 365.311L 339.758 364.364L 337.865 362.472L 336.919 361.525L 336.919 359.632L 335.972 355.847L 334.08 350.168L 333.133 348.276L 333.133 347.329L 333.133 346.383L 333.133 341.651L 333.133 339.758L 333.133 338.812L 329.348 332.187L 328.401 331.24L 316.098 321.776L 311.366 319.884L 305.688 318.937L 303.795 318.937L 302.848 319.884L 301.902 321.776L 300.956 324.616L 300.009 325.562L 299.063 327.455L 297.17 329.348L 295.277 330.294L 293.384 330.294L 291.492 329.348L 285.813 325.562L 284.867 325.562L 282.028 326.508L 282.028 325.562L 282.028 324.616L 281.081 326.508L 278.242 323.669L 274.456 322.723L 263.1 323.669L 256.475 325.562L 253.635 325.562L 251.743 324.616L 249.85 323.669L 247.011 320.83L 243.225 317.991L 237.547 315.152L 231.868 312.312L 229.976 310.42L 229.976 308.527L 230.922 302.848L 230.922 301.902L 231.868 300.956L 232.815 300.009L 234.708 299.063L 235.654 298.116L 234.708 297.17L 230.922 292.438L 229.029 289.599L 228.083 286.76L 229.976 284.867L 231.868 283.92L 233.761 283.92L 235.654 284.867L 237.547 285.813L 238.493 286.76L 239.439 286.76L 240.386 285.813L 240.386 284.867L 239.439 283.92L 238.493 282.974L 237.547 282.028L 234.708 280.135L 233.761 279.188L 231.868 276.349L 229.976 275.403L 224.297 273.51L 221.458 273.51L 220.511 273.51L 219.565 272.564L 219.565 271.617L 220.511 270.671L 221.458 270.671L 224.297 269.724L 224.297 266.885L 223.351 263.1L 224.297 259.314L 225.243 258.368L 226.19 258.368L 227.136 257.421L 227.136 256.475L 226.19 255.528L 225.243 254.582L 222.404 253.636L 220.511 251.743L 218.619 248.904L 216.726 247.011L 213.887 247.011L 211.047 247.011L 206.315 247.011L 194.959 248.904L 192.119 248.904L 191.173 247.957L 189.28 245.118L 188.334 245.118L 185.495 245.118L 183.602 244.172L 182.656 243.225L 181.709 237.547L 180.763 235.654L 179.816 234.708L 176.031 230.922L 175.084 229.975L 174.138 229.975L 172.245 230.922L 170.352 230.922L 168.459 230.922L 165.62 230.922L 161.835 229.029L 158.049 225.243L 145.746 211.047L 144.799 210.101L 143.853 211.994L 142.907 218.619L 141.96 220.511L 140.067 221.458L 137.228 221.458L 134.389 220.511L 128.711 217.672L 127.764 217.672L 126.818 217.672L 123.979 219.565L 122.086 220.511L 121.139 221.458L 120.193 222.404L 120.193 224.297L 121.139 225.243L 127.764 228.083L 129.657 229.975L 131.55 232.815L 133.443 236.6L 137.228 243.225L 139.121 246.064L 140.067 247.011L 140.067 247.957L 140.067 248.904L 139.121 248.904L 135.335 249.85L 134.389 249.85L 133.443 248.904L 133.443 247.957L 133.443 247.011L 133.443 246.064L 132.496 243.225L 130.603 241.332L 128.711 240.386L 123.032 237.547L 122.086 237.547L 121.139 237.547L 119.247 238.493L 118.3 238.493L 117.354 237.547L 116.407 235.654L 115.461 234.708L 114.515 234.708L 113.568 234.708L 112.622 234.708L 111.675 235.654L 110.729 236.6L 109.783 237.547L 108.836 239.44L 106.943 240.386L 105.997 241.332L 105.997 243.225L 106.943 246.064L 106.943 247.011L 105.997 248.904L 104.104 253.636L 103.158 254.582L 101.265 255.528L 101.265 256.475L 101.265 257.421L 102.211 258.368L 102.211 259.314L 101.265 260.26L 100.318 260.26L 96.533 260.26L 95.5865 260.26L 92.7473 262.153L 89.9081 263.1L 82.3369 262.153L 76.6584 262.153L 71.9265 264.992L 67.1945 269.724L 64.3552 275.403L 62.4625 278.242L 60.5697 280.135L 54.8912 282.974L 52.9984 284.867L 52.9984 287.706L 53.9448 293.384L 53.9448 296.224L 53.9448 299.063L 53.9448 300.956L 54.8912 303.795L 55.8376 305.688L 56.7841 307.58L 56.7841 309.473L 56.7841 312.312L 56.7841 314.205L 57.7305 316.098L 58.6769 317.991L 59.6233 318.937L 60.5697 319.884L 61.5161 319.884L 64.3552 320.83L 64.3552 321.776L 63.4089 322.723L 62.4625 323.669L 59.6233 324.616L 58.6769 325.562L 56.7841 328.401L 55.8376 329.348L 49.2129 328.401L 44.4808 327.455L 32.1776 326.508L 18.928 325.562L 8.51758 324.616L 0 323.669L 0 306.634L 0 289.599L 0 272.564L 0 255.528L 0 238.493L 0 221.458L 0 204.423L 0 187.387L 0 170.352L 0 153.317L 0 136.282L 0 118.3L 0 100.319L 0 82.3369L 0 64.3553L 0 46.3737L 4.73206 44.4809L 9.46399 42.5881L 14.196 40.6953L 18.928 38.8025L 23.66 36.9097L 28.3921 35.0168L 33.124 33.124L 37.8561 31.2312L 42.588 29.3384L 47.3201 27.4456L 52.0521 25.5528L 56.7841 23.66L 61.5161 21.7672L 66.248 19.8744L 70.9801 17.9816L 75.7122 16.0888L 82.3369 14.196L 88.9617 12.3032L 95.5865 10.4104L 102.211 8.51761L 105.051 7.57121L 107.89 6.6248L 110.729 5.67841L 113.568 4.73201L 116.407 3.7856L 120.193 2.8392L 123.979 1.89281L 127.764 0.946396L 132.496 0L 133.443 0L 135.335 0.946396L 139.121 3.7856L 140.067 4.73201L 143.853 6.6248L 149.531 10.4104L 156.156 15.1424L 164.674 20.8208L 174.138 27.4456L 184.548 34.0704L 194.959 41.6417L 206.315 49.2129L 217.672 56.7841L 228.083 64.3553L 238.493 70.9801L 247.957 76.6585L 255.528 82.3369L 262.153 87.0689L 266.885 89.9081L 270.671 91.8009L 272.563 93.6937L 273.51 95.5865L 273.51 97.4793L 273.51 101.265L 274.456 103.158L 277.296 108.836L 283.92 115.461L 286.76 118.3L 289.599 121.139L 293.384 125.871L 296.224 129.657L 299.063 133.443L 301.902 137.228L 304.741 141.014L 307.58 144.799L 310.42 148.585L 313.259 152.371L 316.098 156.156L 319.884 160.888L 320.83 161.835L 321.776 162.781L 326.508 161.835L 328.401 161.835L 330.294 161.835L 332.187 161.835L 334.08 161.835L 336.919 160.888L 339.758 159.942L 342.597 158.995L 345.437 158.049L 350.168 157.103L 354.9 156.156L 359.633 155.21L 364.365 154.263L 369.096 153.317L 373.829 152.371L 378.561 151.424L 383.292 150.478L 391.81 151.424L 400.328 152.371L 408.845 153.317L 417.363 154.263L 424.934 155.21L 432.505 156.156L 440.077 157.103L 447.648 158.049L 450.487 158.049L 451.433 158.049L 452.38 158.049L 458.058 155.21L 463.737 152.371L 469.415 149.531L 475.094 146.692L 476.04 146.692L 476.986 146.692L 478.879 146.692L 479.825 147.639L 480.772 148.585L 486.45 156.156L 492.129 163.727L 494.968 166.567L 497.807 169.406L 503.485 173.191L 509.164 176.977L 510.11 177.923L 511.057 178.87L 515.789 188.334L 518.628 194.959L 522.414 203.476L 526.199 211.047L 527.146 211.047L 534.717 206.315L 542.288 201.583L 541.342 220.511L 540.395 239.44L 540.395 241.332L 540.395 243.225L 540.395 244.172L 540.395 245.118L 539.449 245.118L 538.502 245.118L 538.502 246.064L 538.502 247.011L 538.502 261.207L 538.502 275.403L 545.127 275.403L 550.806 275.403L 556.484 275.403L 563.109 275.403L 564.055 284.867L 565.001 294.331L 566.894 303.795L 568.787 313.259L 571.626 323.669L 573.519 334.08L 574.466 335.972L 575.412 337.865L 577.305 338.812L 579.198 339.758L 585.822 339.758L 591.501 339.758L 599.072 338.812L 604.75 338.812L 611.375 338.812L 616.107 338.812L 623.678 338.812L 630.303 338.812L 631.25 338.812L 632.196 338.812L 633.142 339.758L 634.089 340.704L 635.035 340.704L 635.982 340.704L 636.928 340.704L 637.875 340.704L 639.767 339.758L 641.66 338.812L 642.606 338.812L 643.553 338.812L 643.553 339.758L 643.553 340.704L 644.499 342.597L 645.446 344.49L 645.446 345.436L 645.446 346.383L 645.446 347.329L 645.446 348.276L 646.392 348.276L 647.338 348.276L 647.338 349.222L 647.338 350.168L 646.392 350.168L 645.446 350.168L 645.446 351.115L 645.446 352.061L 645.446 353.008L 645.446 353.954L 645.446 354.9L 645.446 355.847L 645.446 356.793L 645.446 357.74L 644.499 358.686L 645.446 358.686L 646.392 358.686L 649.231 361.525L 652.07 364.364L 653.963 366.257L 655.856 368.15L 662.481 371.936L 669.106 375.721L 670.052 376.668L 670.999 377.614L 671.945 377.614L 672.891 377.614L 673.838 377.614L 674.784 377.614L 674.784 376.668L 673.838 376.668L 672.891 376.668L 673.838 375.721L 674.784 374.775L 674.784 373.828L 673.838 373.828L 672.891 373.828L 672.891 372.882L 672.891 371.936L 672.891 369.096L 672.891 366.257L 672.891 365.311L 672.891 364.364L 672.891 363.418L 672.891 362.472L 672.891 361.525L 672.891 360.579L 673.838 359.632L 674.784 358.686L 676.677 357.74L 678.57 356.793L 679.516 355.847L 680.462 354.9L 681.409 352.061L 682.355 349.222L 683.302 348.276L 684.248 347.329L 686.141 346.383L 688.034 345.436L 688.98 344.49L 689.927 343.544L 689.927 342.597L 690.873 342.597L 691.819 342.597L 692.766 342.597L 693.712 342.597L 694.658 341.651L 695.605 340.704L 696.551 339.758L 697.498 338.812L 697.498 335.026L 697.498 331.24L 697.498 330.294L 697.498 329.348L 698.444 328.401L 699.391 327.455L 700.337 327.455L 701.283 327.455L 702.23 327.455L 703.176 327.455L 703.176 326.508L 703.176 325.562L 704.123 324.616L 705.069 323.669L 706.962 322.723L 708.854 321.776L 709.801 321.776L 710.747 321.776L 711.694 320.83L 712.64 319.884L 714.533 319.884L 716.426 319.884L 716.426 318.937L 716.426 317.991L 716.426 317.044L 716.426 316.098L 717.372 315.152L 718.319 314.205L 720.211 313.259L 722.104 312.312L 724.943 310.42L 727.782 308.527L 728.729 307.58L 729.675 306.634L 733.461 305.688L 737.247 304.741L 740.086 304.741L 742.925 304.741L 743.871 303.795L 744.818 302.848L 745.764 301.902L 746.71 300.956L 746.71 300.009L 746.71 299.063L 748.604 298.116L 750.496 297.17L 752.389 295.277L 754.282 293.384L 755.228 292.438L 756.175 291.492L 758.067 288.652L 759.96 285.813L 760.906 285.813L 761.853 285.813L 762.799 285.813L 762.799 284.867L 762.799 283.92L 763.746 282.028L 764.692 280.135L 765.639 279.188L 766.585 278.242L 769.424 277.296L 772.263 276.349L 773.21 276.349L 774.156 276.349L 774.156 277.296L 774.156 278.242L 774.156 279.188L 774.156 280.135L 774.156 281.081L 775.103 281.081L 776.049 281.081L 776.995 281.081L 777.942 281.081L 778.888 281.081L 779.834 281.081L 780.781 280.135L 781.728 279.188L 782.674 276.349L 783.62 275.403L 784.567 274.456L 785.513 273.51L 786.459 272.564L 786.459 271.617L 786.459 270.671L 786.459 269.724L 786.459 268.778L 786.459 267.832L 786.459 266.885L 787.406 266.885L 788.352 266.885L 789.299 266.885L 790.245 266.885L 791.191 266.885L 792.138 266.885L 793.084 265.939L 794.031 264.992L 795.923 263.1L 797.816 261.207L 798.763 260.26L 801.602 258.368L 803.495 258.368L 805.387 259.314L 812.959 264.992L 814.852 265.939L 813.905 268.778L 812.012 270.671L 807.28 271.617L 799.709 277.296L 797.816 278.242L 794.977 278.242L 793.084 279.188L 792.138 282.028L 792.138 285.813L 791.191 286.76L 789.299 287.706L 783.62 288.652L 781.728 289.599L 776.049 294.331L 773.21 297.17L 771.317 300.956L 770.371 302.848L 768.478 303.795L 766.585 304.741L 763.746 307.58L 755.228 313.259L 754.282 315.152L 755.228 317.044L 757.121 317.991L 764.692 318.937L 766.585 319.884L 767.531 320.83L 768.478 321.776L 769.424 324.616L 770.371 325.562L 771.317 325.562L 773.21 324.616L 779.834 320.83L 781.728 320.83L 782.674 321.776L 783.62 322.723L 786.459 328.401L 787.406 330.294L 787.406 332.187L 786.459 336.919L 786.459 337.865L 787.406 338.812L 788.352 338.812L 789.299 337.865L 790.245 337.865L 791.191 337.865L 792.138 338.812L 793.084 339.758L 794.031 340.704L 794.977 341.651L 795.923 341.651L 798.763 341.651L 801.602 342.597L 802.548 343.544L 803.495 344.49L 804.441 345.436L 806.334 345.436L 807.28 346.383L 808.227 348.276L 809.173 349.222L 810.119 348.276L 810.119 346.383L 810.119 345.436L 810.119 344.49L 811.066 343.544L 812.012 343.544L 812.959 344.49L 813.905 347.329L 814.852 348.276L 815.798 349.222L 816.744 349.222L 817.691 348.276L 818.637 346.383L 822.423 349.222L 823.369 348.276L 823.369 345.436L 822.423 333.133L 822.423 332.187L 823.369 332.187L 826.208 335.026L 829.047 335.972L 830.94 335.972L 832.833 334.08L 834.726 330.294L 835.672 327.455L 835.672 325.562L 835.672 324.616L 833.78 322.723L 832.833 321.776L 833.78 318.937L 834.726 317.991L 835.672 317.044L 836.619 317.044L 837.565 317.991L 837.565 319.884L 837.565 321.776L 836.619 325.562L 836.619 326.508L 837.565 326.508L 837.565 325.562L 837.565 324.616L 838.511 324.616L 838.511 325.562L 839.458 325.562L 839.458 323.669L 844.19 331.24L 845.136 333.133L 845.136 335.972L 845.136 338.812L 845.136 341.651L 847.029 342.597L 851.761 341.651L 852.708 342.597L 853.654 343.544L 854.6 344.49L 856.493 343.544L 857.439 342.597L 858.386 341.651L 859.332 341.651L 860.279 342.597L 861.225 343.544L 861.225 345.436L 861.225 347.329L 862.171 351.115L 862.171 352.061L 862.171 353.008L 861.225 354.9L 865.957 353.008L 867.85 353.008L 868.796 351.115L 868.796 350.168L 869.743 349.222L 870.689 350.168L 872.582 353.008L 873.528 353.954L 875.421 353.954L 878.26 353.954L 878.26 355.847L 879.207 356.793L 880.153 356.793L 881.1 356.793L 883.939 360.579L 885.832 362.472L 887.724 363.418L 890.563 363.418L 898.135 362.472L 900.028 363.418L 900.028 365.311L 900.028 366.257L 900.974 366.257L 903.813 364.364L 907.599 362.472L 908.545 363.418L 909.492 364.364L 910.438 365.311L 913.277 365.311ZM 808.227 421.149L 809.173 421.149L 813.905 421.149L 813.905 422.095L 811.066 423.988L 810.119 424.934L 810.119 426.827L 812.958 429.666L 812.958 431.559L 812.012 432.505L 811.066 432.505L 809.173 432.505L 806.334 433.452L 805.387 433.452L 804.441 432.505L 804.441 431.559L 804.441 430.613L 803.495 430.613L 802.548 430.613L 801.602 431.559L 800.655 432.505L 799.709 432.505L 799.709 430.613L 801.602 426.827L 801.602 424.934L 800.655 423.988L 798.762 423.988L 797.816 423.988L 796.87 423.041L 795.923 420.202L 795.923 419.256L 795.923 418.309L 795.923 417.363L 796.87 415.47L 798.762 414.524L 799.709 415.47L 800.655 417.363L 801.602 419.256L 802.548 420.202L 804.441 421.149L 807.28 422.095L 808.227 421.149ZM 776.049 357.74L 773.21 354.9L 772.263 353.954L 771.317 352.061L 772.263 352.061L 774.156 353.008L 775.103 353.954L 776.049 354.9L 776.995 356.793L 776.995 357.74L 776.049 357.74ZM 835.672 429.666L 836.619 428.72L 838.511 426.827L 840.404 426.827L 840.404 427.773L 839.458 432.505L 838.511 433.452L 837.565 433.452L 836.619 433.452L 835.672 432.505L 834.726 431.559L 833.78 430.613L 834.726 429.666L 835.672 429.666Z"/>
</defs>
</svg>
